<?xml version="1.0" encoding="UTF-8" ?>
<!DOCTYPE svg PUBLIC "-//W3C//DTD SVG 1.1//EN" "http://www.w3.org/Graphics/SVG/1.1/DTD/svg11.dtd">
<svg width="727pt" height="73pt" viewBox="0 0 727 73" version="1.1" xmlns="http://www.w3.org/2000/svg">
<g id="#ffffffff">
<path fill="#ffffff" opacity="1.00" d=" M 6.98 0.00 L 95.60 0.00 C 96.83 0.22 98.06 0.46 99.28 0.73 C 96.01 5.77 92.55 11.53 86.45 13.41 C 77.85 15.92 68.81 14.75 59.99 14.99 C 60.01 34.33 59.99 53.66 60.00 73.00 L 45.00 73.00 C 45.00 53.66 44.99 34.33 45.01 14.99 C 35.79 14.55 26.00 16.61 17.30 12.65 C 12.05 10.29 9.11 5.07 6.98 0.00 Z" />
<path fill="#ffffff" opacity="1.00" d=" M 168.62 0.00 L 232.48 0.00 C 239.71 0.65 246.97 0.49 254.21 0.94 C 252.13 4.22 250.08 7.60 247.13 10.18 C 243.08 13.95 237.38 14.98 232.03 15.00 C 219.02 15.01 206.01 14.99 193.00 15.01 C 188.02 15.00 182.70 14.53 178.56 11.48 C 174.19 8.67 171.90 3.85 168.62 0.00 Z" />
<path fill="#ffffff" opacity="1.00" d=" M 331.00 0.00 L 390.49 0.00 C 397.35 0.67 404.26 0.50 411.15 0.98 C 406.69 8.09 399.77 14.71 390.87 14.82 C 375.92 15.24 360.95 14.89 345.99 14.99 C 346.00 19.66 346.00 24.34 345.99 29.01 C 367.66 28.99 389.34 29.01 411.01 28.99 C 410.99 43.66 411.01 58.33 411.00 73.00 L 350.50 73.00 C 342.66 72.39 334.80 72.50 326.96 71.99 C 331.21 66.86 335.91 61.58 342.39 59.33 C 346.15 58.23 350.10 57.98 354.01 57.99 C 368.01 58.01 382.01 57.99 396.01 58.01 C 395.99 53.33 396.00 48.66 396.01 43.99 C 374.34 44.01 352.66 43.99 330.99 44.01 C 331.01 29.34 331.00 14.67 331.00 0.00 Z" />
<path fill="#ffffff" opacity="1.00" d=" M 490.00 0.00 L 505.00 0.00 C 504.99 19.34 505.01 38.67 504.99 58.01 C 525.96 58.01 546.93 57.96 567.90 58.03 C 566.74 61.26 565.56 64.59 563.17 67.14 C 561.44 68.86 559.46 70.31 557.69 71.98 C 561.62 72.30 565.55 72.70 569.50 73.00 L 490.00 73.00 C 490.00 48.67 490.00 24.33 490.00 0.00 Z" />
<path fill="#ffffff" opacity="1.00" d=" M 633.60 0.00 L 719.03 0.00 C 716.77 5.01 713.90 10.22 708.74 12.73 C 701.65 16.08 693.57 14.72 686.00 15.00 C 674.53 14.69 662.97 15.65 651.56 14.46 C 643.14 13.54 638.73 5.66 633.60 0.00 Z" />
<path fill="#ffffff" opacity="1.00" d=" M 170.10 28.03 C 198.03 27.98 225.96 27.98 253.90 28.03 C 252.82 32.08 251.37 36.28 248.11 39.11 C 243.78 43.08 237.63 43.77 232.02 44.00 C 218.68 44.01 205.34 43.99 192.00 44.01 C 186.57 43.92 180.73 43.21 176.42 39.59 C 172.82 36.76 171.22 32.30 170.10 28.03 Z" />
<path fill="#ffffff" opacity="1.00" d=" M 636.99 28.99 C 663.66 29.00 690.33 29.01 717.00 28.99 C 716.99 43.66 717.00 58.33 717.00 73.00 L 703.00 73.00 C 703.00 63.33 702.99 53.66 703.01 43.99 C 686.00 44.01 669.00 44.00 651.99 43.99 C 652.01 53.66 652.00 63.33 652.00 73.00 L 637.00 73.00 C 637.00 58.33 637.01 43.66 636.99 28.99 Z" />
<path fill="#ffffff" opacity="1.00" d=" M 170.10 58.04 C 198.02 57.98 225.94 57.96 253.86 58.06 C 251.91 61.33 250.34 64.91 247.77 67.77 C 245.98 69.74 242.99 70.44 241.85 73.00 L 185.52 73.00 C 177.94 71.55 172.44 65.10 170.10 58.04 Z" />
</g>
</svg>
