<?xml version="1.0" encoding="UTF-8" ?>
<!DOCTYPE svg PUBLIC "-//W3C//DTD SVG 1.1//EN" "http://www.w3.org/Graphics/SVG/1.1/DTD/svg11.dtd">
<svg width="727pt" height="73pt" viewBox="0 0 727 73" version="1.1" xmlns="http://www.w3.org/2000/svg">
<g id="#393c41ff">
<path fill="#393c41" opacity="1.00" d=" M 5.62 0.00 L 101.84 0.00 C 97.16 4.82 93.08 10.74 86.91 13.81 C 78.19 16.33 68.98 15.42 60.03 15.49 C 59.97 34.66 59.99 53.83 60.00 73.00 L 45.00 73.00 C 45.01 53.87 45.04 34.73 44.95 15.60 C 36.53 15.72 27.93 16.37 19.70 14.24 C 12.76 12.17 9.68 5.32 5.62 0.00 Z" />
<path fill="#393c41" opacity="1.00" d=" M 167.45 0.00 L 256.82 0.00 C 251.53 5.43 247.21 13.50 238.97 14.67 C 220.76 15.54 202.45 15.73 184.26 14.40 C 176.25 13.35 172.34 5.38 167.45 0.00 Z" />
<path fill="#393c41" opacity="1.00" d=" M 330.99 0.00 L 413.77 0.00 C 408.05 5.08 403.71 12.77 395.75 14.43 C 379.20 15.84 362.58 14.88 346.00 14.98 C 345.98 19.65 346.00 24.32 346.00 28.99 C 367.67 28.99 389.33 29.01 411.00 29.01 C 410.97 43.67 411.01 58.34 411.01 73.00 L 324.66 73.00 C 330.69 67.67 335.90 60.06 344.12 58.28 C 361.38 57.28 378.71 58.18 396.00 58.03 C 396.00 53.35 395.98 48.68 396.00 44.01 C 374.33 44.00 352.67 44.00 331.00 43.99 C 331.02 29.33 330.98 14.66 330.99 0.00 Z" />
<path fill="#393c41" opacity="1.00" d=" M 490.00 0.00 L 505.00 0.00 C 504.99 19.33 504.98 38.66 505.01 58.00 C 526.28 58.02 547.56 57.83 568.83 58.24 C 566.09 63.19 563.05 67.98 559.33 72.25 C 563.38 72.48 567.46 72.81 571.54 73.00 L 490.00 73.00 C 490.00 48.67 490.00 24.33 490.00 0.00 Z" />
<path fill="#393c41" opacity="1.00" d=" M 632.27 0.00 L 720.47 0.00 C 715.66 5.87 711.42 14.28 703.09 15.04 C 686.78 16.46 670.34 14.85 654.01 14.75 C 643.85 15.94 638.79 5.70 632.27 0.00 Z" />
<path fill="#393c41" opacity="1.00" d=" M 169.29 28.19 C 197.74 27.86 226.21 27.93 254.67 28.11 C 252.87 34.79 248.81 42.06 241.35 43.28 C 226.05 44.73 210.65 43.70 195.32 44.59 C 188.68 44.62 181.35 44.56 176.07 39.93 C 171.90 37.41 171.19 32.27 169.29 28.19 Z" />
<path fill="#393c41" opacity="1.00" d=" M 637.00 29.02 C 663.66 28.98 690.33 28.97 717.00 29.01 C 716.97 43.68 717.02 58.34 717.01 73.00 L 703.02 73.00 C 703.01 63.33 702.99 53.67 702.99 44.00 C 685.99 43.99 669.00 43.99 652.02 44.01 C 651.99 53.67 651.99 63.34 651.99 73.00 L 636.99 73.00 C 636.98 58.34 637.02 43.68 637.00 29.02 Z" />
<path fill="#393c41" opacity="1.00" d=" M 169.02 58.26 C 197.58 57.78 226.14 57.83 254.70 58.32 C 251.34 63.43 247.72 68.38 243.70 73.00 L 182.13 73.00 C 176.20 69.78 172.20 64.05 169.02 58.26 Z" />
</g>
</svg>
